<?xml version="1.0" encoding="utf-8"?>
<!-- Generator: Adobe Illustrator 16.0.0, SVG Export Plug-In . SVG Version: 6.00 Build 0)  -->
<!DOCTYPE svg PUBLIC "-//W3C//DTD SVG 1.1//EN" "http://www.w3.org/Graphics/SVG/1.1/DTD/svg11.dtd">
<svg version="1.1" id="Calque_1" xmlns="http://www.w3.org/2000/svg" xmlns:xlink="http://www.w3.org/1999/xlink" x="0px" y="0px"
	 width="133px" height="106px" viewBox="0 0 133 106" enable-background="new 0 0 133 106" xml:space="preserve">
<g>
	<path fill="#FFFFFF" d="M57.5,19.8c-0.2,0.2-0.4,0.5-0.5,0.7c0,0,0,0,0,0.1c-0.2,0.3-0.3,0.5-0.5,0.8c0,0.1-0.1,0.2-0.1,0.2
		c-0.1,0.2-0.2,0.4-0.3,0.6c0,0.1-0.1,0.2-0.1,0.3c-0.1,0.2-0.2,0.4-0.3,0.7c0,0.1-0.1,0.1-0.1,0.2c-0.1,0.3-0.2,0.6-0.3,0.9
		c0,0.1,0,0.1-0.1,0.2c-0.1,0.2-0.1,0.5-0.2,0.8c0,0.1,0,0.2-0.1,0.3c0,0.2-0.1,0.5-0.1,0.7c0,0.1,0,0.2,0,0.3c0,0.3,0,0.7,0,1
		c0,1.5,1.2,2.7,2.7,2.7h46.7c0,0,0,0,0,0c1.5,0,2.7-1.2,2.7-2.7c0-0.1,0-0.3,0-0.4c-0.2-5.2-4-9.6-11-12.7
		c-0.6-0.3-1.2-0.5-1.9-0.8c0,0-0.1,0-0.1-0.1c-0.6-0.2-1.2-0.4-1.9-0.6c0,0-0.1,0-0.1,0c-0.6-0.2-1.3-0.4-1.9-0.6c0,0-0.1,0-0.1,0
		c-0.6-0.2-1.3-0.3-1.9-0.5c0,0,0,0,0,0v0c0.1-0.3,0.3-0.5,0.4-0.8c0,0,0-0.1,0.1-0.1c0.1-0.2,0.2-0.5,0.2-0.7c0-0.1,0-0.1,0.1-0.2
		c0.1-0.2,0.1-0.4,0.1-0.7c0-0.1,0-0.2,0-0.2c0-0.3,0.1-0.6,0.1-0.9c0-4.4-3.6-8.1-8.1-8.1s-8.1,3.6-8.1,8.1c0,0.3,0,0.6,0,0.9
		c0,0,0,0.1,0,0.1c0,0.2,0.1,0.5,0.1,0.7c0,0,0,0,0,0.1c0.1,0.3,0.1,0.5,0.2,0.8v0c0.1,0.3,0.2,0.5,0.3,0.8c0,0,0,0,0,0
		c-0.5,0.1-0.9,0.2-1.4,0.3c-0.1,0-0.1,0-0.2,0c-0.2,0-0.4,0.1-0.6,0.1c-0.1,0-0.2,0.1-0.3,0.1c-0.2,0.1-0.4,0.1-0.6,0.2
		c-0.1,0-0.2,0.1-0.3,0.1c-0.3,0.1-0.7,0.2-1,0.3c-0.1,0-0.2,0.1-0.3,0.1c-0.2,0.1-0.3,0.1-0.5,0.2c-0.1,0.1-0.3,0.1-0.4,0.2
		c-0.2,0.1-0.3,0.1-0.5,0.2c-0.2,0.1-0.3,0.1-0.5,0.2c-0.1,0.1-0.3,0.1-0.4,0.2c-0.2,0.1-0.5,0.2-0.7,0.3c-0.1,0.1-0.3,0.1-0.4,0.2
		c-0.2,0.1-0.4,0.2-0.6,0.3c-0.1,0.1-0.3,0.1-0.4,0.2c-0.2,0.1-0.4,0.2-0.5,0.3c-0.1,0.1-0.2,0.1-0.4,0.2c-0.2,0.1-0.4,0.2-0.6,0.4
		c-0.1,0-0.2,0.1-0.2,0.1c-0.3,0.2-0.5,0.3-0.8,0.5c-0.1,0.1-0.2,0.1-0.3,0.2c-0.2,0.1-0.4,0.3-0.5,0.4c-0.1,0.1-0.2,0.1-0.3,0.2
		c-0.2,0.1-0.4,0.3-0.5,0.4c-0.1,0.1-0.1,0.1-0.2,0.2c-0.2,0.2-0.5,0.4-0.7,0.6c0,0-0.1,0.1-0.1,0.1c-0.2,0.2-0.4,0.4-0.5,0.5
		c-0.1,0.1-0.1,0.2-0.2,0.2c-0.2,0.2-0.3,0.3-0.4,0.5C57.6,19.6,57.6,19.7,57.5,19.8z M100.7,24.8H60.7c2.6-6,13.4-8.6,19.3-8.6
		C86.3,16.2,97.7,19.5,100.7,24.8z M80.8,5.5c1.5,0,2.7,1.2,2.7,2.7c0,1.5-1.2,2.7-2.7,2.7c-1.5,0-2.7-1.2-2.7-2.7
		C78.1,6.7,79.3,5.5,80.8,5.5z"/>
	<path fill="#FFFFFF" d="M122.9,68.3c2-3.9,3.7-8,5.2-12.4c0-0.1,0.1-0.2,0.1-0.4c0.4-1.2,0.8-2.5,1.2-3.8c0.1-0.4,0.2-0.7,0.3-1.1
		c0.3-1.1,0.6-2.1,0.8-3.2c0.1-0.5,0.2-0.9,0.3-1.4c0.2-1.1,0.5-2.1,0.7-3.2c0.1-0.4,0.2-0.9,0.3-1.3c0.3-1.5,0.6-3,0.8-4.6
		c0,0,0,0,0,0c0-0.2,0-0.3,0-0.5c0,0,0,0,0-0.1c0,0,0,0,0,0s0,0,0,0c0-0.2,0-0.4-0.1-0.5c0,0,0-0.1-0.1-0.1c0-0.1-0.1-0.3-0.1-0.4
		c0,0,0,0,0,0s0,0,0,0c0-0.1-0.1-0.1-0.1-0.2c-0.1-0.1-0.1-0.2-0.2-0.3c0,0,0,0,0-0.1c0,0-0.1-0.1-0.1-0.1c-0.1-0.1-0.2-0.2-0.2-0.2
		c0,0,0,0,0,0s0,0,0,0c-0.1-0.1-0.1-0.1-0.2-0.1c0,0-0.1-0.1-0.1-0.1c0,0-0.1,0-0.1-0.1c-0.1,0-0.2-0.1-0.2-0.1
		c-0.1,0-0.2-0.1-0.3-0.1l0,0l0,0c-0.1,0-0.2,0-0.2-0.1l0,0h0c-0.1,0-0.2,0-0.3,0c0,0-0.1,0-0.1,0h-72c-9.2,0-18.4,5.8-24.6,15.6
		c-0.4,0.7-0.8,1.4-1.2,2.1c-0.1,0.2-0.3,0.5-0.4,0.7c-0.2,0.5-0.5,0.9-0.7,1.4c-0.1,0.3-0.3,0.6-0.4,0.9c-0.2,0.4-0.4,0.8-0.5,1.2
		c-0.1,0.3-0.3,0.7-0.4,1c-0.1,0.4-0.3,0.7-0.4,1.1c-0.1,0.4-0.3,0.7-0.4,1.1c-0.1,0.3-0.2,0.7-0.3,1c-0.1,0.4-0.2,0.8-0.3,1.2
		c-0.1,0.3-0.1,0.6-0.2,0.9c-0.1,0.4-0.2,0.9-0.3,1.3c0,0.2-0.1,0.5-0.1,0.7c-0.1,0.5-0.2,1-0.2,1.5c0,0.1,0,0.2,0,0.4
		c-0.5,4.1-0.3,8.3,0.5,12.3c0,0,0,0,0,0c0.1,0.7,0.3,1.3,0.5,2c0,0,0,0,0,0c0.2,0.7,0.4,1.3,0.6,2c-5,0.1-9.3-0.9-12.8-2.7
		c0,0,0,0,0,0c-0.6-0.3-1.1-0.6-1.6-1c0,0,0,0,0,0c-0.5-0.3-1-0.7-1.5-1.1c0,0,0,0,0,0c-1.4-1.1-2.6-2.4-3.7-3.8c0,0,0-0.1-0.1-0.1
		c-0.3-0.4-0.6-0.9-0.9-1.3c0-0.1-0.1-0.1-0.1-0.2c-0.3-0.4-0.5-0.9-0.7-1.4c0-0.1-0.1-0.1-0.1-0.2c-0.2-0.5-0.4-0.9-0.6-1.4
		c0-0.1,0-0.1-0.1-0.2c-0.2-0.5-0.3-1-0.4-1.5c0,0,0-0.1,0-0.1c-0.1-0.5-0.2-1-0.3-1.6c-1.2-8.6,4.4-18.3,19.5-20.6
		c1.5-0.2,2.5-1.6,2.3-3c-0.2-1.5-1.6-2.5-3-2.3c-8.4,1.2-15.1,4.6-19.4,9.8C1.8,54.7,0.1,60.6,1,66.7c1.5,11.1,11.2,21.2,27.1,21.2
		c0.6,0,1.3,0,1.9-0.1c0.5,0,0.9-0.1,1.4-0.1c0.4,0.7,0.8,1.3,1.2,2c0,0,0.1,0.1,0.1,0.1c0.4,0.6,0.8,1.2,1.3,1.8
		c0.1,0.1,0.1,0.1,0.2,0.2c0.4,0.5,0.9,1.1,1.3,1.6c0.1,0.1,0.2,0.2,0.3,0.3c0.4,0.5,0.9,1,1.4,1.4c0.1,0.1,0.2,0.2,0.3,0.3
		c0.5,0.4,0.9,0.9,1.4,1.3c0.1,0.1,0.3,0.2,0.5,0.4c0.5,0.4,1,0.8,1.5,1.1c0.2,0.1,0.4,0.3,0.6,0.4c0.5,0.3,1,0.7,1.5,1
		c0.2,0.1,0.5,0.3,0.7,0.4c0.5,0.3,1,0.6,1.5,0.8c0.3,0.1,0.5,0.3,0.8,0.4c0.5,0.2,1,0.5,1.5,0.7c0.3,0.1,0.6,0.3,0.9,0.4
		c0.5,0.2,1,0.4,1.5,0.6c0.4,0.1,0.7,0.2,1.1,0.4c0.5,0.2,1,0.3,1.5,0.5c0.4,0.1,0.8,0.2,1.2,0.3c0.5,0.1,0.9,0.3,1.4,0.4
		c0.5,0.1,0.9,0.2,1.4,0.3c0.5,0.1,0.9,0.2,1.4,0.3c0.5,0.1,1,0.2,1.6,0.2c0.4,0.1,0.8,0.1,1.3,0.2c0.6,0.1,1.2,0.1,1.9,0.2
		c0.3,0,0.7,0.1,1,0.1c1,0.1,2,0.1,3,0.1c0,0,0,0,0,0c14.6,0,28.9-5.8,40.5-16.2c0.1-0.1,0.2-0.2,0.2-0.2c0,0,0,0,0,0
		c0.1-0.1,0.1-0.1,0.2-0.2c0.6-0.5,1.2-1.1,1.7-1.6c0.4-0.4,0.8-0.8,1.2-1.2c0.3-0.3,0.6-0.6,0.9-1c0.4-0.4,0.8-0.9,1.2-1.3
		c0.3-0.3,0.5-0.6,0.8-0.9c0.4-0.5,0.8-1,1.2-1.4c0,0,0,0,0,0c1-1.2,1.9-2.5,2.8-3.8c0.2-0.2,0.3-0.4,0.5-0.7
		c0.4-0.6,0.8-1.2,1.2-1.8c0.1-0.2,0.3-0.5,0.4-0.7c0.4-0.6,0.8-1.3,1.2-1.9c0,0,0,0,0,0c0.1-0.2,0.2-0.4,0.3-0.6
		C121.5,70.9,122.2,69.6,122.9,68.3C122.9,68.3,122.9,68.3,122.9,68.3z M124.5,49.6c-0.2,0.7-0.4,1.3-0.6,2
		c-0.1,0.4-0.2,0.7-0.3,1.1c-0.2,0.7-0.4,1.3-0.7,2c-0.1,0.3-0.2,0.5-0.3,0.7c-0.5,1.4-1,2.7-1.6,4.1c-0.1,0.2-0.1,0.4-0.2,0.5
		c-0.3,0.6-0.5,1.2-0.8,1.9c-0.1,0.3-0.3,0.6-0.4,0.9c-0.3,0.6-0.6,1.2-0.8,1.8c-0.1,0.3-0.3,0.6-0.4,0.8c-0.3,0.6-0.6,1.2-0.9,1.8
		c0,0,0,0,0,0L107,59.2c0,0,0,0,0,0c1.8-1,3.5-2,5.2-3.1c0,0,0,0,0,0c0.8-0.5,1.6-1,2.4-1.5c0,0,0.1-0.1,0.1-0.1c1.5-1,3-2,4.4-3.1
		c0.1-0.1,0.2-0.1,0.3-0.2c1.4-1,2.7-2.1,3.9-3.1c0.1-0.1,0.2-0.2,0.3-0.2c0.6-0.5,1.2-1,1.7-1.6c-0.2,0.7-0.4,1.4-0.6,2.1
		C124.7,48.8,124.6,49.2,124.5,49.6z M112.5,75.1c-0.7,1-1.4,1.9-2.1,2.8c-0.2,0.2-0.3,0.4-0.5,0.6c-0.6,0.7-1.2,1.4-1.8,2.1
		c-0.2,0.2-0.4,0.4-0.6,0.7c-0.8,0.8-1.5,1.7-2.3,2.5c0,0,0,0,0,0l-13.3-10l-5.6-4.2c0,0,0,0,0,0c1.3-0.6,2.6-1.1,3.9-1.7
		c0,0,0.1,0,0.1,0c1.3-0.6,2.6-1.2,3.9-1.8c0,0,0,0,0,0c2.6-1.2,5.1-2.5,7.6-3.8c0,0,0,0,0,0l12.9,9.7C114,72.9,113.3,74,112.5,75.1
		C112.5,75.1,112.5,75.1,112.5,75.1z M99.2,89c-0.4,0.3-0.7,0.5-1.1,0.8c-0.3,0.2-0.6,0.5-0.9,0.7c-0.4,0.3-0.8,0.5-1.1,0.8
		c-0.3,0.2-0.6,0.4-0.9,0.6c-0.4,0.3-0.8,0.5-1.2,0.8c-0.3,0.2-0.5,0.3-0.8,0.5c-0.4,0.2-0.9,0.5-1.3,0.7c-0.2,0.1-0.4,0.2-0.7,0.4
		c-1.8,1-3.6,1.8-5.5,2.5L62.3,79.2L62.1,79c0,0,0,0,0,0c1.4-0.5,2.9-1,4.4-1.6c0,0,0,0,0,0c1.5-0.5,2.9-1.1,4.4-1.7
		c0.1,0,0.2-0.1,0.3-0.1c1.5-0.6,2.9-1.1,4.4-1.7c0.1,0,0.1,0,0.2-0.1c1.5-0.6,3.1-1.2,4.6-1.9c0,0,0,0,0,0l5.2,3.9l15.4,11.6
		c-0.3,0.3-0.7,0.5-1,0.8C99.8,88.5,99.5,88.7,99.2,89z M124.8,39.2c-0.3,0.3-0.5,0.6-0.8,0.9c0,0,0,0-0.1,0.1
		c-0.3,0.3-0.6,0.6-0.9,0.9c0,0-0.1,0.1-0.1,0.1c-0.3,0.3-0.6,0.6-0.9,0.9c0,0,0,0,0,0c-1.7,1.6-3.6,3.2-5.8,4.8c0,0,0,0,0,0
		c-0.3,0.3-0.7,0.5-1,0.8c-0.1,0.1-0.2,0.2-0.4,0.3c-0.3,0.2-0.6,0.4-0.9,0.7c-0.2,0.1-0.3,0.2-0.5,0.4c-0.3,0.2-0.6,0.4-0.9,0.6
		c-0.2,0.1-0.4,0.3-0.6,0.4c-0.3,0.2-0.6,0.4-0.8,0.6c-0.2,0.2-0.5,0.3-0.7,0.5c-0.3,0.2-0.5,0.3-0.8,0.5c-0.3,0.2-0.5,0.3-0.8,0.5
		c-0.2,0.2-0.5,0.3-0.7,0.5c-0.3,0.2-0.7,0.4-1,0.6c-0.2,0.1-0.4,0.2-0.6,0.4c-0.5,0.3-1,0.6-1.5,0.9c0,0-0.1,0-0.1,0.1c0,0,0,0,0,0
		V39.2L124.8,39.2C124.8,39.2,124.8,39.2,124.8,39.2z M99.2,57.3c-5,2.6-10.4,5.1-15.8,7.4c0,0,0,0,0,0V39.2h15.8V57.3z M78.1,67
		C78.1,67,78.1,67,78.1,67c-1.7,0.7-3.3,1.3-4.9,2c0,0,0,0,0,0c-1.6,0.6-3.2,1.2-4.8,1.8c0,0-0.1,0-0.1,0c-1.6,0.6-3.1,1.2-4.7,1.7
		c0,0,0,0,0,0c-1.5,0.6-3,1.1-4.5,1.6c0,0,0,0-0.1,0v-35h19.1V67z M38.9,51c0.1-0.1,0.2-0.3,0.3-0.4c0.2-0.3,0.4-0.6,0.7-0.9
		c0.1-0.2,0.2-0.3,0.4-0.5c0.2-0.3,0.4-0.5,0.7-0.8c0.1-0.1,0.2-0.3,0.4-0.4c0.3-0.3,0.6-0.6,0.9-1c0.1-0.1,0.2-0.3,0.4-0.4
		c0.3-0.3,0.6-0.6,0.8-0.8c0.2-0.2,0.3-0.3,0.5-0.5c0.2-0.2,0.4-0.4,0.6-0.5c0.2-0.2,0.4-0.3,0.6-0.5c0.2-0.1,0.4-0.3,0.5-0.4
		c0.2-0.2,0.4-0.3,0.6-0.5c0.1-0.1,0.3-0.2,0.4-0.3c0.5-0.3,1-0.6,1.4-0.9c0.1-0.1,0.2-0.1,0.3-0.2c0.3-0.2,0.5-0.3,0.8-0.4
		c0.1-0.1,0.2-0.1,0.4-0.2c0.3-0.1,0.5-0.3,0.8-0.4c0.1,0,0.2-0.1,0.3-0.1c1-0.5,2-0.8,3.1-1.1v36.3c-2.7,0.9-5.2,1.7-7.5,2.4
		c0,0,0,0,0,0c-0.4,0.1-0.9,0.3-1.3,0.4c0,0-0.1,0-0.1,0c-0.4,0.1-0.8,0.2-1.2,0.4c-0.1,0-0.1,0-0.2,0.1c-0.4,0.1-0.7,0.2-1.1,0.3
		c-0.1,0-0.2,0-0.2,0.1c-0.3,0.1-0.6,0.2-0.9,0.3c-0.1,0-0.2,0.1-0.3,0.1c-0.3,0.1-0.6,0.2-0.8,0.2c-0.1,0-0.2,0.1-0.4,0.1
		c-0.2,0.1-0.5,0.1-0.7,0.2c-0.1,0-0.3,0.1-0.4,0.1c-0.2,0.1-0.4,0.1-0.6,0.2c-0.1,0-0.3,0.1-0.4,0.1c-0.2,0.1-0.4,0.1-0.6,0.2
		c-0.1,0-0.3,0.1-0.4,0.1c-0.2,0-0.3,0.1-0.5,0.1c-0.1,0-0.2,0.1-0.3,0.1c-0.2,0-0.3,0.1-0.5,0.1c-0.1,0-0.2,0-0.3,0.1
		c-0.2,0-0.3,0.1-0.5,0.1c0,0,0,0,0,0c-0.2-0.6-0.4-1.2-0.6-1.8c-0.1-0.3-0.2-0.6-0.3-0.9c-0.1-0.3-0.2-0.6-0.3-1
		c-0.1-0.3-0.1-0.6-0.2-0.9c-0.1-0.3-0.1-0.6-0.2-1c-0.1-0.3-0.1-0.6-0.1-1c0-0.3-0.1-0.6-0.1-1c0-0.3-0.1-0.6-0.1-1
		c0-0.3-0.1-0.7-0.1-1c0-0.3,0-0.6,0-1c0-0.3,0-0.7,0-1c0-0.3,0-0.6,0-1c0-0.3,0-0.7,0.1-1c0-0.3,0.1-0.6,0.1-0.9
		c0-0.3,0.1-0.7,0.1-1c0-0.3,0.1-0.6,0.1-0.9c0.1-0.3,0.1-0.7,0.2-1c0.1-0.3,0.1-0.6,0.2-0.9c0.1-0.4,0.2-0.7,0.3-1.1
		c0.1-0.3,0.2-0.6,0.2-0.9c0.1-0.4,0.2-0.7,0.3-1.1c0.1-0.3,0.2-0.6,0.3-0.9c0.1-0.4,0.3-0.7,0.4-1.1c0.1-0.3,0.2-0.5,0.3-0.8
		c0.2-0.4,0.3-0.8,0.5-1.1c0.1-0.3,0.2-0.5,0.3-0.8c0.2-0.4,0.4-0.8,0.6-1.2c0.1-0.2,0.2-0.4,0.3-0.6c0.3-0.6,0.7-1.2,1.1-1.8
		C38.3,51.9,38.6,51.4,38.9,51z M63.9,100.4c-0.3,0-0.6,0-0.9-0.1c-0.5,0-1.1-0.1-1.6-0.1c-0.3,0-0.7-0.1-1-0.1
		c-0.5-0.1-0.9-0.1-1.4-0.2c-0.4-0.1-0.7-0.1-1.1-0.2c-0.4-0.1-0.8-0.2-1.2-0.2c-0.4-0.1-0.8-0.2-1.2-0.3c-0.4-0.1-0.7-0.2-1.1-0.3
		c-0.4-0.1-0.8-0.2-1.2-0.4c-0.3-0.1-0.6-0.2-0.9-0.3c-0.4-0.2-0.9-0.3-1.3-0.5c-0.2-0.1-0.5-0.2-0.7-0.3C50,97.2,49.5,97,49,96.8
		c-0.1,0-0.2-0.1-0.3-0.1c-3.7-1.7-6.8-4.1-9.3-6.9c0,0,0,0,0,0c-0.4-0.5-0.8-0.9-1.2-1.4c0,0,0,0,0-0.1c-0.4-0.5-0.7-1-1.1-1.5
		c0,0,0,0,0,0c0.2-0.1,0.4-0.1,0.7-0.2c0.1,0,0.1,0,0.2,0c0.2-0.1,0.4-0.1,0.7-0.2c0.1,0,0.2,0,0.3-0.1c0.2-0.1,0.5-0.1,0.7-0.2
		c0.1,0,0.1,0,0.2-0.1c1.5-0.4,3.3-0.9,5.2-1.5c0,0,0,0,0,0c3.2-0.9,6.9-2.1,10.9-3.4c0,0,0,0,0,0l23.5,17.6c-2.1,0.6-4.3,1-6.4,1.3
		c-0.1,0-0.2,0-0.2,0c-0.9,0.1-1.8,0.2-2.7,0.3c-0.2,0-0.4,0-0.7,0c-1,0.1-2,0.1-2.9,0.1C65.6,100.4,64.7,100.4,63.9,100.4z"/>
</g>
</svg>
