<?xml version="1.0" encoding="utf-8"?>
<!-- Generator: Adobe Illustrator 16.0.0, SVG Export Plug-In . SVG Version: 6.00 Build 0)  -->
<!DOCTYPE svg PUBLIC "-//W3C//DTD SVG 1.1//EN" "http://www.w3.org/Graphics/SVG/1.1/DTD/svg11.dtd">
<svg version="1.1" id="Calque_1" xmlns="http://www.w3.org/2000/svg" xmlns:xlink="http://www.w3.org/1999/xlink" x="0px" y="0px"
	 width="148px" height="148px" viewBox="0 0 148 148" enable-background="new 0 0 148 148" xml:space="preserve">
<g>
	<path fill="#4D4D4D" d="M73.9,147.5c-40.4,0-73.3-32.9-73.3-73.3c0-40.4,32.9-73.3,73.3-73.3c40.4,0,73.3,32.9,73.3,73.3
		C147.2,114.6,114.3,147.5,73.9,147.5z M73.9,7.9C37.3,7.9,7.6,37.6,7.6,74.2c0,36.6,29.8,66.3,66.3,66.3s66.3-29.8,66.3-66.3
		C140.2,37.6,110.5,7.9,73.9,7.9z"/>
	<path fill="#4D4D4D" d="M56.6,105.3c-0.4,0-0.7-0.1-1.1-0.2l-0.1,0c-1.4-0.5-2.4-1.8-2.4-3.3v-49c0-1.3,0.8-2.5,2-3.1l0.5-0.2
		c1-0.5,2.2-0.5,3.2,0L105.2,74c1.1,0.6,1.9,1.8,1.9,3.1c0,1.3-0.7,2.5-1.9,3.1l-47,24.7C57.7,105.2,57.2,105.3,56.6,105.3z
		 M60,58.1v38l36.1-19L60,58.1z"/>
</g>
</svg>
